<svg width="537" height="847" viewBox="0 0 537 847" fill="none" xmlns="http://www.w3.org/2000/svg">
<path fill-rule="evenodd" clip-rule="evenodd" d="M0.761479 29.975L6.14287 47.8978C9.80954 52.3058 19.9429 53.8486 31.1429 24.7556C33.4 18.8926 35.5011 13.2588 37.5133 7.86327C38.4307 5.4035 39.3296 2.99328 40.2164 0.633484L99.9562 0.633484C100.952 13.4649 100.822 23.9221 100.719 32.1388C100.475 51.744 100.389 58.5947 116.143 54.5098C134.888 49.6493 144.987 28.7103 157.563 2.63659C157.883 1.97217 158.205 1.3044 158.529 0.633484L214.161 0.633484C214.326 2.03284 214.486 3.46149 214.643 4.91948C218.609 41.9045 219.038 69.0415 219.224 80.8216C219.343 88.3466 219.363 89.6053 220.143 83.162C220.378 81.2209 220.64 78.687 220.951 75.6836C222.742 58.3959 226.144 25.5514 235.172 0.633484L285.269 0.633484C286.08 11.373 287.045 23.4274 288.643 36.8777C290.157 49.6159 290.875 66.945 291.559 83.4435C293.36 126.892 294.922 164.58 310.143 97.4882C319.245 57.3663 325.717 25.1113 330.495 0.633484L370.361 0.633484C371.951 11.3787 372.842 23.4949 372.643 36.8777C371.643 104.1 373.643 156.997 395.143 68.8359C402.556 38.4381 408.186 16.8182 412.791 0.633484L448.069 0.633484C450.772 19.8081 454.038 39.8511 458.643 54.5098C462.094 65.4954 465.61 80.081 469.057 94.3834C479.098 136.035 488.56 175.286 494.143 116.222C497.589 79.7658 497.552 53.5459 497.523 33.3935C497.504 20.2903 497.489 9.75227 498.438 0.633484L506.928 0.633484C520.229 0.633484 531.509 9.29055 535.44 21.2778C535.802 52.8352 533.971 80.6343 532.949 96.1523C532.122 108.699 531.825 113.217 533.643 105.202C534.292 102.341 535.43 99.3491 536.928 96.2299V816.731C536.928 821.448 535.839 825.911 533.899 829.883C522.738 798.16 499.42 746.69 491.176 775.963C488.287 786.222 488.692 814.121 489.78 846.731H481.249C481.216 846.038 481.181 845.344 481.143 844.649C478.924 804.31 460.352 757.888 448.624 746.841C442.123 740.717 427.778 755.224 423.451 763.038C416.939 774.801 411.828 798.986 404.551 833.42C403.647 837.7 402.709 842.139 401.731 846.731H346.458C347.254 823.388 348.226 801.025 349.023 782.674C349.217 778.202 349.401 773.968 349.57 770.016C352.864 692.765 305.975 761.032 300.297 789.062C295.642 812.043 302.735 827.346 309.762 842.507C310.415 843.914 311.066 845.32 311.708 846.731H259.48C256.467 836.189 253.668 825.69 251.143 815.997C235.643 756.488 221.588 726.023 170.088 718.309C144.363 714.456 150.697 736.815 159.059 766.338C166.296 791.887 175.052 822.799 165.868 846.731H143.971C142.17 827.859 136.576 800.579 117.042 770.304C112.237 762.857 102.429 764.417 100.172 772.987C99.8795 774.097 99.5824 775.231 99.2801 776.385C91.9262 804.463 81.4818 844.342 61.6428 827.017C43.5928 811.254 49.0054 764.798 52.5544 734.336C54.2159 720.075 55.469 709.319 53.7152 706.86C51.2295 703.373 41.7418 729.279 32.905 753.407L32.9047 753.408C27.3748 768.507 22.0998 782.91 18.9553 788.978C18.7562 789.362 18.5522 789.745 18.3479 790.129L18.3476 790.129C17.5108 791.701 16.6696 793.281 16.1452 794.974L4.7642 831.725C2.21391 827.314 0.754395 822.193 0.754395 816.731L0.754395 30.6335C0.754395 30.4134 0.756764 30.1939 0.761479 29.975Z" fill="url(#paint0_linear_107_2)"/>
<defs>
<linearGradient id="paint0_linear_107_2" x1="383.894" y1="-167.09" x2="227.635" y2="1111.49" gradientUnits="userSpaceOnUse">
<stop stop-color="#FFC0CB" stop-opacity="0.65"/>
<stop offset="0.479167" stop-color="#8E44AD"/>
</linearGradient>
</defs>
</svg>
